<?xml version="1.0" encoding="utf-8"?>
<!-- Generator: Adobe Illustrator 25.0.1, SVG Export Plug-In . SVG Version: 6.00 Build 0)  -->
<svg version="1.1" id="Layer_1" xmlns="http://www.w3.org/2000/svg" xmlns:xlink="http://www.w3.org/1999/xlink" x="0px" y="0px"
	 viewBox="0 0 1755 612" style="enable-background:new 0 0 1755 612;" xml:space="preserve">
<style type="text/css">
	.st0{fill:none;stroke:#F9B233;stroke-width:36;stroke-linecap:square;stroke-linejoin:bevel;stroke-miterlimit:10;}
	.st1{fill:none;stroke:#000000;stroke-width:45;stroke-linecap:round;stroke-linejoin:round;stroke-miterlimit:10;}
	.st2{fill:#E6007E;}
	.st3{fill:url(#SVGID_1_);}
	.st4{fill:#FFFFFF;}
	.st5{fill:#F9B233;}
	.st6{fill:none;stroke:#000000;stroke-miterlimit:10;}
	.st7{stroke:#000000;stroke-miterlimit:10;}
	.st8{fill:#E6332A;stroke:#000000;stroke-miterlimit:10;}
	.st9{fill:none;stroke:#F9B233;stroke-width:45;stroke-linecap:round;stroke-linejoin:round;stroke-miterlimit:10;}
	.st10{fill:#3C3C3B;}
	.st11{fill:none;}
	.st12{fill:#E6332A;}
	.st13{fill:none;stroke:#000000;stroke-width:60;stroke-linecap:round;stroke-miterlimit:10;}
	.st14{fill:none;stroke:url(#SVGID_2_);stroke-width:60;stroke-linecap:round;stroke-miterlimit:10;}
	.st15{fill:#F9B233;stroke:#FFFFFF;stroke-miterlimit:10;}
</style>
<g>
	<path class="st13" d="M59.87,556.99V289.42c0-81.04,63.07-146.73,140.86-146.73h0c77.8,0,140.86,65.69,140.86,146.73v267.57"/>
	<path class="st13" d="M805.62,556.99L642.49,144.6c-0.99-2.5-4.33-2.56-5.4-0.1L457.6,556.99"/>
	<linearGradient id="SVGID_1_" gradientUnits="userSpaceOnUse" x1="899.9077" y1="349.8418" x2="1496.4229" y2="349.8418">
		<stop  offset="2.077838e-07" style="stop-color:#009FE3"/>
		<stop  offset="1" style="stop-color:#69B42D"/>
	</linearGradient>
	<path style="fill:none;stroke:url(#SVGID_1_);stroke-width:60;stroke-linecap:round;stroke-miterlimit:10;" d="M1211.63,556.99
		V289.42c0-81.04-63.07-146.73-140.86-146.73h0c-77.8,0-140.86,65.69-140.86,146.73v267.57 M1466.42,556.99V289.42
		c0-81.04-63.07-146.73-140.86-146.73h0c-46.82,0-88.31,23.8-113.93,60.42"/>
	<line class="st13" x1="1652.71" y1="556.99" x2="1652.71" y2="233.84"/>
	<g>
		<g>
			<g>
				<path class="st15" d="M1616.98,55.19l-12.99-12.99c-1.79-1.79-4.7-1.79-6.5,0c-1.79,1.79-1.79,4.7,0,6.5l12.99,12.99
					c1.79,1.79,4.7,1.79,6.5,0C1618.77,59.89,1618.77,56.98,1616.98,55.19z"/>
			</g>
		</g>
		<g>
			<g>
				<path class="st15" d="M1597.58,92.83h-18.68c-2.54,0-4.59,2.05-4.59,4.59c0,2.54,2.06,4.59,4.59,4.59h18.68
					c2.54,0,4.59-2.06,4.59-4.59S1600.12,92.83,1597.58,92.83z"/>
			</g>
		</g>
		<g>
			<g>
				<path class="st15" d="M1726.53,92.83h-18.68c-2.54,0-4.59,2.05-4.59,4.59c0,2.54,2.05,4.59,4.59,4.59h18.68
					c2.54,0,4.59-2.06,4.59-4.59S1729.07,92.83,1726.53,92.83z"/>
			</g>
		</g>
		<g>
			<g>
				<path class="st15" d="M1707.94,42.19c-1.79-1.79-4.7-1.79-6.5,0l-12.99,12.99c-1.79,1.79-1.79,4.7,0,6.5
					c1.79,1.79,4.7,1.79,6.5,0l12.99-12.99C1709.74,46.89,1709.74,43.99,1707.94,42.19z"/>
			</g>
		</g>
		<g>
			<g>
				<path class="st15" d="M1652.71,19.01c-2.54,0-4.59,2.05-4.59,4.59v18.68c0,2.54,2.05,4.59,4.59,4.59c2.54,0,4.59-2.05,4.59-4.59
					V23.6C1657.31,21.06,1655.25,19.01,1652.71,19.01z"/>
			</g>
		</g>
		<g>
			<g>
				<path class="st15" d="M1678.44,64.98c-10.02-7.9-22.97-10.75-35.65-7.72c-14.7,3.4-26.56,15.07-30.14,29.68
					c-3.58,14.7,0.55,29.59,11.12,39.97c3.77,3.77,5.97,9.68,5.97,15.74v1.01c0,2.57,2.02,4.59,4.59,4.59h36.76
					c2.57,0,4.59-2.02,4.59-4.59v-1.01c0-5.97,2.3-12.07,6.34-16.02c7.72-7.81,12.04-18.19,12.04-29.22
					C1694.06,84.74,1688.37,72.89,1678.44,64.98z M1652.71,83.64c-6.93,0-11.98,4.6-13.3,9.92c-0.6,2.42-3.04,3.97-5.57,3.36
					c-2.46-0.61-3.96-3.11-3.35-5.56c2.28-9.19,10.91-16.9,22.22-16.9c2.54,0,4.59,2.05,4.59,4.59
					C1657.31,81.58,1655.25,83.64,1652.71,83.64z"/>
			</g>
		</g>
		<g>
			<g>
				<path class="st15" d="M1634.34,157.46v4.59c0,7.6,6.18,13.78,13.78,13.78h9.19c7.6,0,13.78-6.18,13.78-13.78v-4.59H1634.34z"/>
			</g>
		</g>
	</g>
</g>
</svg>
